<svg width="57" height="57" xmlns="http://www.w3.org/2000/svg" xmlns:xlink="http://www.w3.org/1999/xlink" xml:space="preserve" overflow="hidden"><g transform="translate(-813 -553)"><path d="M868.278 576.572 861.569 565.409 860.975 564.4 859.966 565.053 855.453 567.844C854.919 568.141 854.503 568.675 854.325 569.269 854.206 569.684 854.206 570.159 854.384 570.575 853.138 570.991 851.891 571.228 850.584 571.228 848.803 571.169 847.022 570.872 845.3 570.338 844.469 570.1 843.578 569.922 842.688 569.744L842.569 569.744 842.569 569.744C842.509 569.744 842.45 569.744 842.45 569.744L842.331 569.744 842.213 569.744C842.094 569.744 842.034 569.744 841.916 569.744L841.916 569.744C840.906 569.744 839.897 570.159 839.244 570.931L838.769 571.466C837.997 571.169 837.166 570.991 836.334 570.991 836.156 570.991 836.037 570.991 835.859 570.991 835.503 570.991 835.206 571.05 834.85 571.05 834.078 571.109 833.306 571.169 832.534 571.169 831.228 571.228 829.922 570.931 828.734 570.397 828.794 570.041 828.794 569.684 828.734 569.269 828.556 568.675 828.141 568.141 827.606 567.844L823.153 565.053 822.144 564.4 821.55 565.409 814.722 576.572 814.128 577.581 815.138 578.175 819.709 580.966C820.541 581.5 821.55 581.441 822.322 580.847L826.181 585.359 826.241 585.478 826.359 585.537 826.359 585.537 825.528 586.487C824.459 587.734 824.578 589.575 825.766 590.644L825.766 590.644 825.766 590.644C826.3 591.119 826.953 591.356 827.666 591.356 827.784 591.356 827.903 591.356 828.022 591.356 828.438 591.297 828.794 591.178 829.15 590.941 829.209 591.653 829.566 592.366 830.1 592.841L830.1 592.841 830.1 592.841C830.634 593.316 831.287 593.553 832 593.553 832.059 593.553 832.178 593.553 832.237 593.553 832.534 593.553 832.831 593.494 833.128 593.375 833.188 594.028 833.484 594.681 834.019 595.097L834.019 595.097 834.019 595.097C834.494 595.513 835.088 595.75 835.681 595.75 835.8 595.75 835.859 595.75 835.978 595.75 836.394 595.75 836.75 595.572 837.106 595.394 837.225 595.809 837.463 596.225 837.819 596.522 838.294 596.938 838.888 597.175 839.541 597.116L839.659 597.116 839.778 597.116C840.134 597.056 840.491 596.878 840.787 596.7L840.847 596.759 841.678 597.412 841.737 597.472 841.797 597.531C842.331 597.888 842.984 598.066 843.578 598.066 843.697 598.066 843.816 598.066 843.934 598.066 845.419 597.947 846.606 596.878 847.022 595.453 848.328 595.216 849.397 594.206 849.753 592.9 851.119 592.603 852.188 591.594 852.484 590.287 852.544 590.287 852.662 590.287 852.722 590.287 854.622 590.109 856.047 588.447 855.928 586.547 855.928 586.428 855.928 586.25 855.928 586.131L856.403 585.537 860.5 580.787C861.272 581.441 862.341 581.441 863.231 580.906L867.803 578.116 868.812 577.522 868.278 576.572ZM820.303 579.956 815.731 577.166 822.5 566.003 827.013 568.794C827.487 569.031 827.725 569.625 827.547 570.1L827.191 570.694 822.025 579.244 821.669 579.778C821.491 579.956 821.194 580.075 820.897 580.075 820.719 580.134 820.481 580.075 820.303 579.956ZM827.903 590.169C827.844 590.169 827.784 590.169 827.725 590.169 826.775 590.169 826.003 589.338 826.003 588.388 826.003 587.972 826.181 587.556 826.419 587.259L829.566 583.697C829.922 583.341 830.397 583.103 830.931 583.103 831.347 583.103 831.763 583.281 832.059 583.519 832.772 584.172 832.891 585.3 832.237 586.013L829.091 589.575C828.794 589.931 828.378 590.109 827.903 590.169ZM832.297 592.425C832.237 592.425 832.178 592.425 832.119 592.425 831.169 592.425 830.397 591.594 830.397 590.644 830.397 590.228 830.575 589.812 830.812 589.516L833.544 586.369C833.9 586.013 834.375 585.775 834.909 585.775 835.325 585.775 835.741 585.953 836.037 586.191 836.75 586.844 836.869 587.972 836.216 588.684L833.484 591.831C833.188 592.188 832.772 592.425 832.297 592.425L832.297 592.425ZM836.037 594.622C835.978 594.622 835.919 594.622 835.859 594.622 835.503 594.622 835.206 594.503 834.909 594.266 834.316 593.731 834.256 592.781 834.791 592.188L837.522 589.041C837.819 588.744 838.234 588.566 838.65 588.566 839.006 588.566 839.362 588.684 839.6 588.922 840.194 589.456 840.253 590.406 839.719 591L836.987 594.147C836.75 594.444 836.394 594.622 836.037 594.622L836.037 594.622ZM839.659 596.047C839.362 596.047 839.006 595.987 838.769 595.75 838.294 595.334 838.234 594.562 838.65 594.088L840.966 591.416C841.203 591.178 841.5 591 841.856 591 842.153 591 842.391 591.119 842.628 591.297 843.103 591.713 843.162 592.484 842.747 592.959L840.431 595.631C840.253 595.869 839.956 595.987 839.659 596.047L839.659 596.047ZM852.722 589.1C852.662 589.1 852.544 589.1 852.484 589.1 852.128 589.1 851.772 588.981 851.475 588.862 851.475 588.981 851.534 589.1 851.534 589.219 851.653 590.525 850.703 591.653 849.397 591.772 849.397 591.772 849.397 591.772 849.397 591.772 849.219 591.772 848.981 591.772 848.803 591.713L848.803 591.772C848.922 593.078 847.972 594.206 846.666 594.325 846.666 594.325 846.666 594.325 846.666 594.325 846.487 594.325 846.25 594.325 846.072 594.266L846.072 594.325C846.191 595.631 845.241 596.759 843.934 596.878 843.934 596.878 843.934 596.878 843.934 596.878 843.875 596.878 843.816 596.878 843.756 596.878 843.341 596.878 842.925 596.759 842.509 596.522L841.737 595.928 843.638 593.731C844.469 592.722 844.35 591.237 843.4 590.406 842.984 590.05 842.45 589.812 841.856 589.812 841.678 589.812 841.441 589.812 841.263 589.872 841.203 589.159 840.906 588.506 840.372 588.031 839.897 587.616 839.244 587.378 838.591 587.378L838.591 587.378C838.294 587.378 838.056 587.438 837.759 587.497 837.759 586.666 837.403 585.894 836.75 585.3 836.216 584.825 835.562 584.528 834.85 584.588L834.85 584.588C834.494 584.588 834.138 584.647 833.781 584.766 833.722 583.934 833.366 583.162 832.772 582.628 832.237 582.153 831.584 581.856 830.872 581.916L830.872 581.916C830.041 581.916 829.209 582.272 828.616 582.925L827.072 584.706 827.013 584.647 822.975 579.956 828.141 571.406C829.447 572.059 830.931 572.356 832.416 572.297 833.603 572.297 834.791 572.178 835.859 572.059 835.978 572.059 836.097 572.059 836.216 572.059 836.75 572.059 837.284 572.119 837.759 572.297L834.494 576.156C833.841 576.869 833.544 577.819 833.603 578.769 833.662 579.719 834.138 580.55 834.85 581.203L834.85 581.203 834.85 581.203C835.503 581.737 836.334 582.034 837.166 582.034 837.284 582.034 837.344 582.034 837.463 582.034 838.412 581.975 839.303 581.5 839.897 580.787L843.934 576.156 843.934 576.156 844.588 576.75 854.147 584.944C854.562 585.3 854.8 585.894 854.8 586.428 854.8 586.487 854.8 586.666 854.8 586.666 854.919 587.912 853.969 588.981 852.722 589.1 852.722 589.1 852.722 589.1 852.722 589.1ZM855.631 584.766C855.453 584.469 855.216 584.231 854.978 583.994L843.875 574.434 839.006 580.016C838.591 580.491 838.056 580.787 837.403 580.847 837.344 580.847 837.284 580.847 837.225 580.847 836.631 580.847 836.097 580.609 835.622 580.253 834.612 579.422 834.494 577.997 835.325 576.987 835.325 576.987 835.384 576.928 835.384 576.928L840.075 571.584C840.55 571.05 841.203 570.812 841.856 570.812 841.916 570.812 841.975 570.812 842.094 570.812 842.213 570.812 842.272 570.872 842.391 570.872 845.122 571.406 847.616 572.356 850.525 572.356 852.009 572.356 853.494 572.119 854.859 571.584L858.303 577.166 859.906 579.838 855.631 584.766ZM862.697 579.956C862.519 580.075 862.281 580.134 862.103 580.134 861.806 580.134 861.509 580.016 861.272 579.778L860.916 579.184 859.312 576.572 855.572 570.397C855.216 569.862 855.394 569.209 855.869 568.853 855.928 568.853 855.928 568.794 855.987 568.794L860.559 566.003 867.269 577.166 862.697 579.956Z"/></g></svg>