<svg width="57" height="57" xmlns="http://www.w3.org/2000/svg" xmlns:xlink="http://www.w3.org/1999/xlink" xml:space="preserve" overflow="hidden"><g transform="translate(-436 -553)"><path d="M479.926 558.938 446.094 558.938 446.094 604.039 479.926 604.039C481.568 604.041 482.902 602.713 482.906 601.071L482.906 561.906C482.902 560.264 481.568 558.936 479.926 558.938ZM447.281 560.125 451.592 560.125 451.592 602.852 447.281 602.852ZM481.719 601.072C481.715 602.058 480.913 602.855 479.926 602.853L452.78 602.853 452.78 560.125 479.926 560.125C480.913 560.123 481.715 560.92 481.719 561.906Z"/><path d="M466.655 580.776C469.163 580.764 471.185 578.721 471.173 576.214 471.16 573.707 469.117 571.684 466.61 571.697 464.112 571.709 462.093 573.738 462.093 576.236 462.099 578.75 464.142 580.782 466.655 580.776ZM466.655 572.884C468.507 572.897 469.997 574.407 469.985 576.259 469.973 578.11 468.462 579.601 466.61 579.589 464.768 579.576 463.28 578.079 463.28 576.236 463.289 574.38 464.799 572.88 466.655 572.884Z"/><path d="M474.869 584.628C473.544 583.619 472.031 582.887 470.419 582.474 469.199 582.099 467.931 581.907 466.655 581.904 463.706 581.962 460.843 582.912 458.444 584.628 457.881 585.064 457.546 585.732 457.531 586.444L457.531 590.983 475.781 590.983 475.781 586.444C475.768 585.731 475.432 585.064 474.869 584.628ZM474.594 589.796 458.717 589.796 458.717 586.444C458.733 586.102 458.896 585.783 459.165 585.571 460.392 584.699 461.757 584.04 463.202 583.62 464.325 583.291 465.486 583.113 466.656 583.091 467.823 583.096 468.984 583.273 470.1 583.616 471.563 583.986 472.936 584.647 474.137 585.561 474.413 585.772 474.581 586.096 474.594 586.444Z"/></g></svg>