<svg width="57" height="57" xmlns="http://www.w3.org/2000/svg" xmlns:xlink="http://www.w3.org/1999/xlink" xml:space="preserve" overflow="hidden"><g transform="translate(-719 -553)"><path d="M769.766 597.888 762.344 590.466C761.334 589.456 759.969 589.1 758.662 589.338L756.05 586.725C758.366 583.756 759.731 579.956 759.731 575.919 759.731 566.122 751.716 558.106 741.919 558.106 732.122 558.106 724.106 566.122 724.106 575.919 724.106 585.716 732.122 593.731 741.919 593.731 745.956 593.731 749.697 592.366 752.725 590.05L755.338 592.662C755.1 593.969 755.456 595.334 756.466 596.344L763.888 603.766C764.719 604.597 765.787 605.013 766.856 605.013 767.925 605.013 768.994 604.597 769.825 603.766 771.369 602.103 771.369 599.491 769.766 597.888ZM741.859 590.109C734.022 590.109 727.609 583.697 727.609 575.859 727.609 568.022 734.022 561.609 741.859 561.609 749.697 561.609 756.109 568.022 756.109 575.859 756.109 583.697 749.697 590.109 741.859 590.109Z" stroke="#000000" stroke-width="1.01786" fill="none"/></g></svg>