<svg width="56" height="57" xmlns="http://www.w3.org/2000/svg" xmlns:xlink="http://www.w3.org/1999/xlink" xml:space="preserve" overflow="hidden"><g transform="translate(-531 -553)"><path d="M52.6948 38.1675 49.5407 37.0487 49.5407 31.7852 52.0765 30.7125C52.3733 30.5873 52.5124 30.2451 52.3872 29.9483 52.3093 29.7638 52.1422 29.6321 51.9447 29.5995L47.7814 28.9117 47.7814 23.7533 52.7188 21.7583C53.0175 21.6377 53.1618 21.2977 53.0412 20.999 52.9786 20.844 52.8525 20.7233 52.6948 20.6675L49.5407 19.5487 49.5407 14.2852 52.0765 13.2125C52.3732 13.087 52.512 12.7447 52.3865 12.448 52.3237 12.2997 52.2025 12.1839 52.0514 12.1281L32.4748 4.9C32.3487 4.85341 32.2104 4.85176 32.0833 4.89533L5.65833 14.1108C5.60319 14.1296 5.55126 14.1568 5.50433 14.1913 5.42908 14.2497 3.6575 15.5972 3.6575 19.7371 3.65037 20.68 3.7585 21.6204 3.9795 22.5371 3.29175 23.1204 1.9075 24.6954 1.9075 27.9037 1.89558 30.2126 2.63491 32.4627 4.01392 34.3146 3.76545 35.2685 3.64558 36.2514 3.6575 37.2371 3.6575 41.3426 5.46233 43.0121 5.53933 43.0803 5.59058 43.127 5.64987 43.1639 5.71433 43.1894L24.381 50.5347C24.4491 50.5613 24.5215 50.575 24.5945 50.575 24.6695 50.5751 24.7438 50.5606 24.8132 50.5324L52.7188 39.2583C53.0175 39.1377 53.1618 38.7977 53.0412 38.499 52.9786 38.344 52.8525 38.2233 52.6948 38.1675ZM46.6147 29.0092 24.5706 37.793 6.10458 30.5235 6.10458 25.8504 24.3833 33.0347C24.5221 33.0901 24.6768 33.0901 24.8156 33.0347L46.6136 24.2264ZM24.5951 49.3634 6.26092 42.1499C5.97625 41.8326 4.82533 40.3562 4.82533 37.2371 4.80857 36.2631 4.94097 35.2922 5.21792 34.3583 5.28104 34.16 5.2337 33.943 5.09367 33.789 3.76858 32.1144 3.05636 30.0368 3.07533 27.9014 3.07533 24.4335 4.86792 23.3106 4.942 23.2668 5.17543 23.1316 5.28567 22.8539 5.20858 22.5954 4.94461 21.6659 4.81612 20.7033 4.82708 19.7371 4.82708 16.6355 5.90683 15.4122 6.15067 15.1754L32.2665 6.06667 50.2507 12.7073C50.2588 12.7073 50.2588 12.7155 50.2507 12.7184L24.5951 23.1134 7.48475 16.3783C7.18492 16.2604 6.84629 16.4078 6.7284 16.7076 6.70162 16.7757 6.68792 16.8482 6.68792 16.9213L6.68792 22.7547C6.68797 22.9941 6.83439 23.2093 7.05717 23.2972L24.3833 30.1181C24.5221 30.1734 24.6768 30.1734 24.8156 30.1181L48.6885 20.4697 50.841 21.2473C50.8486 21.2502 50.8486 21.2549 50.841 21.2584L24.5951 31.8634 5.73475 24.4516C5.43494 24.3337 5.0963 24.4812 4.97839 24.7809 4.95162 24.849 4.93789 24.9215 4.93792 24.9947L4.93792 30.9213C4.93797 31.1608 5.08439 31.3759 5.30717 31.4638L24.3582 38.9632C24.4961 39.0178 24.6497 39.0178 24.7876 38.9632L47.2628 30.009 49.7467 30.4173C49.7578 30.4173 49.7583 30.4243 49.7467 30.4284L24.5951 40.6134 7.48475 33.8783C7.18492 33.7604 6.84629 33.9078 6.7284 34.2076 6.70162 34.2757 6.68792 34.3482 6.68792 34.4213L6.68792 40.2547C6.68797 40.4941 6.83439 40.7093 7.05717 40.7972L24.3833 47.6181C24.5221 47.6734 24.6768 47.6734 24.8156 47.6181L48.6885 37.9697 50.841 38.7473C50.8486 38.7473 50.8486 38.7549 50.841 38.7584ZM48.3741 19.3387 24.5951 28.9467 7.85342 22.3551 7.85342 17.7759 24.3833 24.2847C24.5221 24.3401 24.6768 24.3401 24.8156 24.2847L48.3741 14.7636ZM48.3741 36.8387 24.5951 46.4468 7.85342 39.8551 7.85342 35.2759 24.3833 41.7847C24.5221 41.8401 24.6768 41.8401 24.8156 41.7847L48.3741 32.2636Z" transform="matrix(1 0 0 1.01786 531 553)"/></g></svg>