<svg width="57" height="57" xmlns="http://www.w3.org/2000/svg" xmlns:xlink="http://www.w3.org/1999/xlink" xml:space="preserve" overflow="hidden"><g transform="translate(-625 -553)"><path d="M654.688 570.812 652.312 570.812C651.006 570.812 649.938 569.744 649.938 568.438L649.938 563.688C649.938 562.381 651.006 561.312 652.312 561.312L654.688 561.312C655.994 561.312 657.062 562.381 657.062 563.688L657.062 568.438C657.062 569.744 655.994 570.812 654.688 570.812Z" stroke="#000000" stroke-width="1.01786" fill="none"/><path d="M672.5 582.688 658.25 582.688 658.25 580.312 672.5 580.312 672.5 582.688ZM672.5 589.812 658.25 589.812 658.25 587.438 672.5 587.438 672.5 589.812ZM672.5 596.938 658.25 596.938 658.25 594.562 672.5 594.562 672.5 596.938ZM653.5 596.938 634.5 596.938 634.5 592.188C634.5 591.475 634.856 590.763 635.45 590.287 636.756 589.338 638.419 588.506 640.081 588.031 641.388 587.675 642.694 587.438 644 587.438 645.425 587.438 646.731 587.675 647.919 588.031 649.581 588.506 651.244 589.219 652.55 590.287 653.144 590.763 653.5 591.475 653.5 592.188L653.5 596.938ZM644 576.75C646.612 576.75 648.75 578.888 648.75 581.5 648.75 584.112 646.612 586.25 644 586.25 641.388 586.25 639.25 584.112 639.25 581.5 639.25 578.888 641.388 576.75 644 576.75ZM674.875 568.438 659.438 568.438C659.438 571.05 657.3 573.188 654.688 573.188L652.312 573.188C649.7 573.188 647.562 571.05 647.562 568.438L632.125 568.438C630.819 568.438 629.75 569.506 629.75 570.812L629.75 599.312C629.75 600.619 630.819 601.688 632.125 601.688L674.875 601.688C676.181 601.688 677.25 600.619 677.25 599.312L677.25 570.812C677.25 569.506 676.181 568.438 674.875 568.438Z" stroke="#000000" stroke-width="1.01786" fill="none"/></g></svg>