<svg width="57" height="56" xmlns="http://www.w3.org/2000/svg" xmlns:xlink="http://www.w3.org/1999/xlink" xml:space="preserve" overflow="hidden"><g transform="translate(-207 -93)"><path d="M38.5 46.6667 17.5 46.6667 17.5 9.33333 38.5 9.33333 38.5 46.6667ZM25.6667 4.66667 30.3333 4.66667C30.975 4.66667 31.5 5.19167 31.5 5.83333 31.5 6.475 30.975 7 30.3333 7L25.6667 7C25.025 7 24.5 6.475 24.5 5.83333 24.5 5.19167 25.025 4.66667 25.6667 4.66667ZM40.8333 2.33333 15.1667 2.33333C14.525 2.33333 14 2.85833 14 3.5L14 52.5C14 53.1417 14.525 53.6667 15.1667 53.6667L40.8333 53.6667C41.475 53.6667 42 53.1417 42 52.5L42 3.5C42 2.85833 41.475 2.33333 40.8333 2.33333Z" stroke="#000000" fill="none" transform="matrix(1.01786 0 0 1 207 93)"/></g></svg>