<svg width="56" height="57" xmlns="http://www.w3.org/2000/svg" xmlns:xlink="http://www.w3.org/1999/xlink" xml:space="preserve" overflow="hidden"><g transform="translate(-248 -553)"><path d="M13.4167 8.16667 42.5833 8.16667 42.5833 47.8333 13.4167 47.8333 13.4167 8.16667ZM9.91667 51.3333 46.0833 51.3333 46.0833 4.66667 9.91667 4.66667 9.91667 51.3333Z" stroke="#000000" fill="none" transform="matrix(1 0 0 1.01786 248 553)"/><path d="M28.5833 38.5 39.0833 38.5 39.0833 40.8333 28.5833 40.8333Z" stroke="#000000" fill="none" transform="matrix(1 0 0 1.01786 248 553)"/><path d="M16.9167 12.8333 39.0833 12.8333 39.0833 15.1667 16.9167 15.1667Z" stroke="#000000" fill="none" transform="matrix(1 0 0 1.01786 248 553)"/><path d="M16.9167 17.5 39.0833 17.5 39.0833 19.8333 16.9167 19.8333Z" stroke="#000000" fill="none" transform="matrix(1 0 0 1.01786 248 553)"/><path d="M16.9167 22.1667 39.0833 22.1667 39.0833 24.5 16.9167 24.5Z" stroke="#000000" fill="none" transform="matrix(1 0 0 1.01786 248 553)"/><path d="M16.9167 26.8333 28 26.8333 28 29.1667 16.9167 29.1667Z" stroke="#000000" fill="none" transform="matrix(1 0 0 1.01786 248 553)"/><path d="M18.725 43.75 21 41.475 23.275 43.75 25.0833 41.9417 22.8083 39.6667 25.0833 37.3917 23.275 35.5833 21 37.8583 18.725 35.5833 16.9167 37.3917 19.1917 39.6667 16.9167 41.9417Z" stroke="#000000" fill="none" transform="matrix(1 0 0 1.01786 248 553)"/></g></svg>