<svg width="57" height="57" xmlns="http://www.w3.org/2000/svg" xmlns:xlink="http://www.w3.org/1999/xlink" xml:space="preserve" overflow="hidden"><g transform="translate(-342 -553)"><path d="M368.956 585.775 369.906 588.684 369.372 589.219 366.462 588.269C366.462 588.269 366.462 588.269 366.403 588.209 365.75 587.556 365.75 586.487 366.462 585.834 367.175 585.181 368.244 585.122 368.956 585.775ZM349.006 572.713 365.75 589.456 372.281 591.594 370.144 585.122 353.4 568.319 349.006 572.713Z" stroke="#000000" stroke-width="1.01786" fill="none"/><path d="M345.266 567.191C344.791 567.725 344.85 568.556 345.384 569.031L347.759 571.406 352.094 567.072 349.719 564.697C349.719 564.697 349.719 564.697 349.719 564.697 349.184 564.162 348.294 564.162 347.819 564.697L345.384 567.131C345.325 567.131 345.325 567.191 345.266 567.191Z" stroke="#000000" stroke-width="1.01786" fill="none"/><path d="M383.562 589.219 373.35 589.219 374.181 591.594 383.562 591.594Z" stroke="#000000" stroke-width="1.01786" fill="none"/><path d="M383.562 574.969 362.544 574.969 364.919 577.344 383.562 577.344Z" stroke="#000000" stroke-width="1.01786" fill="none"/><path d="M353.875 580.075 353.875 602.875C353.875 604.181 354.944 605.25 356.25 605.25L388.312 605.25C389.619 605.25 390.688 604.181 390.688 602.875L390.688 563.688C390.688 562.381 389.619 561.312 388.312 561.312L378.219 561.312 378.219 560.125C378.219 558.819 377.15 557.75 375.844 557.75L368.719 557.75C367.413 557.75 366.344 558.819 366.344 560.125L366.344 561.312 356.25 561.312C354.944 561.312 353.875 562.381 353.875 563.688L353.875 566.3 354.528 566.953 354.647 567.072 354.647 567.072 357.438 569.862 357.438 564.875 363.969 564.875 363.969 568.438 380.594 568.438 380.594 564.875 387.125 564.875 387.125 601.688 357.438 601.688 357.438 583.638 353.875 580.075ZM374.062 561.906C374.062 562.916 373.291 563.688 372.281 563.688 371.272 563.688 370.5 562.916 370.5 561.906 370.5 560.897 371.272 560.125 372.281 560.125 372.756 560.125 373.231 560.303 373.528 560.659 373.884 560.956 374.062 561.431 374.062 561.906Z" stroke="#000000" stroke-width="1.01786" fill="none"/><path d="M383.562 582.094 369.669 582.094 372.044 584.469 383.562 584.469Z" stroke="#000000" stroke-width="1.01786" fill="none"/></g></svg>