<svg width="56" height="57" xmlns="http://www.w3.org/2000/svg" xmlns:xlink="http://www.w3.org/1999/xlink" xml:space="preserve" overflow="hidden"><g transform="translate(-908 -553)"><path d="M14.2917 22.225 6.53333 29.9833C12.3667 35.8167 13.125 39.9 13.125 39.9 17.9083 40.6583 22.4583 42.5833 26.425 45.4417L26.5417 45.325C26.775 45.4417 27.0083 45.5583 27.2417 45.5583 30.6833 45.85 34.2417 46.4917 34.3 46.4917 34.65 46.55 35 46.4917 35.2917 46.375 36.1667 45.9667 36.575 44.975 36.225 44.1 35.9917 43.575 35.8167 43.05 35.7 42.4667 37.3333 43.2833 38.85 44.3917 40.1917 45.675 40.7167 46.2 41.475 46.3167 42.1167 46.025 42.9917 45.6167 43.4 44.625 42.9917 43.6917 42.8167 43.225 42.6417 42.7 42.5833 42.2333 43.6917 42.7583 46.0833 45.2667 47.95 47.95 48.0667 48.0667 48.125 48.1833 48.125 48.2417 48.65 49.0583 49.7583 49.2333 50.575 48.7083 51.3917 48.1833 51.5667 47.075 51.0417 46.2583 50.9833 46.1417 50.8667 46.025 50.8083 45.9083 48.8833 42.9917 46.6667 38.325 47.3083 36.2833 47.425 35.8167 47.8333 35.525 48.3 35.4083 48.8833 35.2333 49.525 35.175 50.1667 35.2917 50.9833 35.4083 51.7417 35.6417 52.5 35.9333 52.5 35.9333 52.5583 35.9333 52.5583 35.9917 53.4917 36.3417 54.4833 35.875 54.775 34.9417 55.0667 34.0083 54.6 33.0167 53.6667 32.6667 52.675 32.2583 51.625 31.9667 50.5167 31.7917 49.35 31.6167 48.1833 31.7333 47.075 32.0833 45.5583 32.55 44.3917 33.7167 43.925 35.175 43.575 36.4 43.575 37.7417 43.8667 39.025 43.225 38.7333 42.4667 38.5583 41.7667 38.675 40.8333 38.7917 39.9583 39.375 39.4917 40.1917 39.4333 40.25 39.375 40.3667 39.375 40.4833 37.9167 39.4917 36.225 38.675 34.65 38.675L34.65 38.675C33.8333 38.675 33.0167 39.0833 32.55 39.7833 32.0833 40.6583 31.9083 41.65 32.1417 42.5833 31.3833 42.4667 30.5083 42.35 29.6333 42.2333L29.8083 42.0583C26.95 38.15 25.025 33.6 24.2667 28.7583 24.15 28.8167 20.125 28.0583 14.2917 22.225ZM18.0833 35.9917C17.6167 35.525 17.5 34.8833 17.7333 34.2417 18.0833 33.425 19.0167 33.075 19.775 33.425 20.5917 33.775 20.9417 34.7083 20.5917 35.4667L28.2917 43.1667 27.475 43.9833 19.775 36.3417C19.1917 36.575 18.55 36.4583 18.0833 35.9917L18.0833 35.9917Z" stroke="#000000" fill="none" transform="matrix(1 0 0 1.01786 908 553)"/><path d="M1.10833 5.83333 1.10833 27.0083C2.74167 28.4667 3.73333 29.4 3.73333 29.4L13.7083 19.425C13.7083 19.425 8.05 13.3 1.10833 5.83333Z" stroke="#000000" fill="none" transform="matrix(1 0 0 1.01786 908 553)"/></g></svg>