<svg width="57" height="57" xmlns="http://www.w3.org/2000/svg" xmlns:xlink="http://www.w3.org/1999/xlink" xml:space="preserve" overflow="hidden"><g transform="translate(-1002 -553)"><path d="M1037.21 575.147C1034.72 575.147 1032.76 573.128 1032.76 570.694 1032.76 568.259 1034.78 566.241 1037.21 566.241 1039.7 566.241 1041.66 568.259 1041.66 570.694 1041.66 573.128 1039.64 575.147 1037.21 575.147ZM1047.24 567.903C1047.01 567.072 1046.71 566.3 1046.29 565.588L1047.24 562.797 1045.11 560.659 1042.32 561.609C1041.6 561.194 1040.83 560.897 1040 560.659L1038.69 558.047 1035.72 558.047 1034.42 560.659C1033.59 560.897 1032.82 561.194 1032.1 561.609L1029.31 560.659 1027.18 562.797 1028.12 565.588C1027.71 566.3 1027.41 567.072 1027.18 567.903L1024.56 569.209 1024.56 572.178 1027.18 573.484C1027.41 574.316 1027.71 575.088 1028.12 575.8L1027.18 578.591 1029.25 580.669 1032.04 579.719C1032.76 580.134 1033.53 580.431 1034.36 580.669L1035.67 583.281 1038.63 583.281 1039.94 580.669C1040.77 580.431 1041.54 580.134 1042.26 579.719L1045.05 580.669 1047.18 578.591 1046.23 575.8C1046.65 575.088 1047.01 574.256 1047.24 573.484L1049.86 572.178 1049.86 569.209 1047.24 567.903Z" stroke="#000000" stroke-width="1.01786" fill="none"/><path d="M1023.79 596.759C1021.3 596.759 1019.34 594.741 1019.34 592.306 1019.34 589.812 1021.36 587.853 1023.79 587.853 1026.28 587.853 1028.24 589.872 1028.24 592.306 1028.24 594.741 1026.28 596.759 1023.79 596.759L1023.79 596.759ZM1032.88 587.2 1033.82 584.409 1031.69 582.272 1028.9 583.222C1028.18 582.806 1027.35 582.509 1026.58 582.272L1025.28 579.659 1022.31 579.659 1021 582.272C1020.17 582.509 1019.4 582.806 1018.68 583.222L1015.89 582.272 1013.82 584.35 1014.71 587.141C1014.29 587.853 1013.99 588.684 1013.76 589.456L1011.14 590.763 1011.14 593.731 1013.76 595.037C1013.99 595.869 1014.29 596.641 1014.71 597.353L1013.82 600.144 1015.89 602.222 1018.68 601.331C1019.4 601.747 1020.17 602.044 1021 602.281L1022.31 604.894 1025.28 604.894 1026.58 602.281C1027.41 602.044 1028.18 601.747 1028.9 601.331L1031.69 602.281 1033.77 600.144 1032.88 597.412C1033.29 596.7 1033.59 595.928 1033.82 595.097L1036.44 593.791 1036.44 590.822 1033.82 589.516C1033.59 588.684 1033.29 587.912 1032.88 587.2Z" stroke="#000000" stroke-width="1.01786" fill="none"/></g></svg>